<?xml version="1.0" encoding="UTF-8"?>
<svg width="1024" height="1024" viewBox="0 0 1024 1024" xmlns="http://www.w3.org/2000/svg">
  <defs>
    <linearGradient id="bg" x1="0" y1="0" x2="0" y2="1">
      <stop offset="0" stop-color="#1b2a4a"/>
      <stop offset="1" stop-color="#0b1120"/>
    </linearGradient>
    <filter id="shadow" x="-20%" y="-20%" width="140%" height="140%">
      <feDropShadow dx="0" dy="14" stdDeviation="22" flood-color="#000000" flood-opacity="0.28"/>
    </filter>
  </defs>

  <rect x="112" y="104" width="800" height="800" rx="180" fill="url(#bg)" filter="url(#shadow)"/>
  <rect x="119" y="111" width="786" height="786" rx="173" fill="none" stroke="#ffffff" stroke-opacity="0.08" stroke-width="3"/>

  <g stroke="#38486a" stroke-width="10" stroke-linecap="round">
    <line x1="330" y1="390" x2="540" y2="320"/>
    <line x1="540" y1="320" x2="610" y2="520"/>
  </g>

  <g stroke="#ff7d3d" stroke-width="18" stroke-linecap="round" stroke-linejoin="round">
    <line x1="330" y1="390" x2="400" y2="600"/>
    <line x1="400" y1="600" x2="610" y2="520"/>
    <line x1="610" y1="520" x2="680" y2="690"/>
  </g>

  <circle cx="540" cy="320" r="24" fill="#5b6f96"/>
  <circle cx="400" cy="600" r="24" fill="#9db4d6"/>
  <circle cx="610" cy="520" r="24" fill="#9db4d6"/>
  <circle cx="330" cy="390" r="30" fill="#2fd3c3"/>

  <g stroke="#ff4d4d" stroke-width="8" stroke-linecap="round">
    <line x1="680" y1="614" x2="680" y2="636"/>
    <line x1="680" y1="744" x2="680" y2="766"/>
    <line x1="604" y1="690" x2="626" y2="690"/>
    <line x1="734" y1="690" x2="756" y2="690"/>
  </g>
  <circle cx="680" cy="690" r="58" fill="none" stroke="#ff4d4d" stroke-width="8"/>
  <circle cx="680" cy="690" r="38" fill="#ff4d4d"/>
  <circle cx="680" cy="690" r="13" fill="#ffffff"/>
</svg>
